HIERARCHY
ROOT Hips
{
    OFFSET 13.393939971923828 81.72749710083008 -17.183490753173828
    CHANNELS 6 Xposition Yposition Zposition Zrotation Xrotation Yrotation
    JOINT RightUpLeg
    {
        OFFSET -13.393939971923828 0.0 0.0
        CHANNELS 3 Zrotation Xrotation Yrotation
        JOINT RightLeg
        {
            OFFSET 0.0 -38.768768310546875 0.0
            CHANNELS 3 Zrotation Xrotation Yrotation
            JOINT RightFoot
            {
                OFFSET 0.0 -42.9587287902832 0.0
                CHANNELS 3 Zrotation Xrotation Yrotation
                End Site
                {
                    OFFSET 0.0 0.0 17.183490753173828
                }
            }
        }
    }
    JOINT LeftUpLeg
    {
        OFFSET 13.393939971923828 0.0 0.0
        CHANNELS 3 Zrotation Xrotation Yrotation
        JOINT LeftLeg
        {
            OFFSET 0.0 -38.768768310546875 0.0
            CHANNELS 3 Zrotation Xrotation Yrotation
            JOINT LeftFoot
            {
                OFFSET 0.0 -42.9587287902832 0.0
                CHANNELS 3 Zrotation Xrotation Yrotation
                End Site
                {
                    OFFSET 0.0 0.0 17.183490753173828
                }
            }
        }
    }
    JOINT Spine
    {
        OFFSET 0.0 23.221412658691406 0.0
        CHANNELS 3 Zrotation Xrotation Yrotation
        JOINT Spine3
        {
            OFFSET 0.0 25.3260440826416 0.0
            CHANNELS 3 Zrotation Xrotation Yrotation
            JOINT Neck
            {
                OFFSET 0.0 11.011157989501953 0.0
                CHANNELS 3 Zrotation Xrotation Yrotation
                End Site
                {
                    OFFSET 0.0 4.404462814331055 0.0
                }
            }
            JOINT LeftArm
            {
                OFFSET 14.902273178100586 0.0 0.0
                CHANNELS 3 Zrotation Xrotation Yrotation
                JOINT LeftForeArm
                {
                    OFFSET 27.224239349365234 0.0 0.0
                    CHANNELS 3 Zrotation Xrotation Yrotation
                    JOINT LeftHand
                    {
                        OFFSET 18.42660140991211 0.0 0.0
                        CHANNELS 3 Zrotation Xrotation Yrotation
                        End Site
                        {
                            OFFSET 7.370640277862549 0.0 0.0
                        }
                    }
                }
            }
            JOINT RightArm
            {
                OFFSET -14.902273178100586 0.0 0.0
                CHANNELS 3 Zrotation Xrotation Yrotation
                JOINT RightForeArm
                {
                    OFFSET -27.224239349365234 0.0 0.0
                    CHANNELS 3 Zrotation Xrotation Yrotation
                    JOINT RightHand
                    {
                        OFFSET -18.42660140991211 0.0 0.0
                        CHANNELS 3 Zrotation Xrotation Yrotation
                        End Site
                        {
                            OFFSET -7.370640277862549 0.0 0.0
                        }
                    }
                }
            }
        }
    }
}
MOTION
Frames: 6
Frame Time: 0.03333333333333333
0.00047322269529104233 56.37593078613281 -0.0007370936218649149 13.807931004104203 -7.592014852141988 67.07377335139678 18.811446020575552 -55.29815881058837 12.276894254531303 4.815663338009083 75.81832742519101 -12.808145623940051 -7.951386703658792e-16 -5.963540027744094e-16 7.20594420019078e-16 -16.571485039231693 -55.3278358975016 -17.113973214007444 74.20492163577146 78.90925108493852 -62.251930937051505 -1.5902773407317582e-15 -1.9878466759146976e-15 -2.9817700138720468e-15 7.291831951321787 22.878625053439368 -1.2928058644700324 2.568349722067873e-07 2.7924562252426735e-07 4.4342503422107145 -1.7902914341382699 -5.355472097322429 -178.67186589864528 100.42184679017326 1.764200977140243 -171.16177314868665 3.0171462851989824e-06 5.526816815910558e-07 39.15768293812217 6.3611093629270335e-15 -3.531125038440127e-31 -6.3611093629270335e-15 -114.38135428240385 3.526061836819573 153.4676751224843 -4.2079383771424835e-07 2.8058501718969976e-06 -76.63183662260661 -1.5902773407317582e-15 0.0 0.0
0.0004501208895817399 56.375919342041016 -0.0007256338139995933 13.861148175152467 -7.605802994076234 67.11500847123878 18.586960084074146 -55.241792139654606 12.120212995487725 5.117262944854537 75.66550631708597 -13.008571618942593 4.051828047038232e-32 -7.951386703658791e-16 5.839299610499425e-15 -16.87767516413641 -55.02280143127136 -17.27555466458994 74.08739558869381 78.4741671359882 -61.86315859991051 3.975693351829396e-16 -1.5902773407317584e-15 -6.957463365701443e-16 7.0812304218657705 22.954654837528004 -1.2330295414911445 5.847736373144559e-07 4.28608464315482e-07 4.703035838650987 -1.5037629516150903 -5.8365605039480535 -178.96637804621795 101.06391345129974 -0.22249585923569046 -170.49554964497543 1.8465437871029763e-06 -1.9846271747836517e-06 38.55271972427165 1.5902773407317584e-15 -7.951386703658792e-15 1.1034765745125397e-31 -114.99375322416275 2.480746235024005 151.77335099358032 2.0387038444740513e-06 -3.043344099489576e-08 -72.74821682992054 1.5902773407317588e-15 0.0 0.0
0.0004227954486850649 56.375919342041016 -0.0007251646602526307 13.878634292671794 -7.6130873774735 67.13351771706638 18.281543634902075 -55.0552170945955 11.885371970873194 5.266445013761581 75.37368061197769 -13.0394699056886 -1.2241693248498487e-32 1.9878466759146977e-16 7.056855699497176e-15 -16.909110288858137 -54.64169096032366 -17.178037657473755 73.20060606138297 78.15591175450312 -60.83843330691505 -3.975693351829395e-16 -1.5902773407317582e-15 2.385416011097637e-15 6.8602466566113005 22.991843443199024 -1.1705825642906662 -5.000442782078889e-07 -8.969108100741452e-07 4.920621137629412 -1.315221198847456 -6.469827576461784 -179.60632670015482 101.68401243843131 -1.4250260369553838 -169.67646722495047 -4.682660222822326e-08 -3.6427466971891274e-06 38.346559765520496 -6.3611093629270335e-15 4.770832022195275e-15 2.648343778830095e-31 -115.72185783542008 1.4237785557232134 149.88748562532749 -1.5132355754698785e-07 8.257601110109832e-07 -68.55058318465791 -3.1805546814635168e-15 -6.3611093629270335e-15 1.5902773407317582e-15
0.00041142094414681196 56.375919342041016 -0.0007270211353898048 13.885605653693286 -7.572658416404807 67.24625129912157 17.82662831723481 -55.051023708119644 11.541796589640079 5.56647974822217 75.01576277703494 -13.087249014737658 0.0 0.0 -4.224174186318733e-15 -17.351176068422802 -54.56042812076315 -17.50011912773518 72.6734235951038 77.86398902919835 -60.03185452564288 1.987846675914698e-15 1.1927080055488186e-15 -6.4605016967227685e-15 6.5956253268823515 22.98586714247234 -1.0842215632273573 -2.596497765188325e-07 -6.796503976458963e-07 5.230389730868083 -1.0396779029348135 -6.922279126715232 -179.93997666913683 102.14311562554373 -2.0015762153328134 -169.13204179254615 -1.2327499996572457e-07 -1.7692549447523277e-06 37.27269810100025 0.0 0.0 -6.361109362927035e-15 -116.15560575826277 1.051617873723802 148.34827907150392 -1.4714297884218946e-07 3.069634605028435e-07 -65.7586643769296 0.0 0.0 0.0
0.0003942356270272285 56.375946044921875 -0.0007392162224277854 13.96898982339589 -7.600360362103409 67.30902635969073 17.726919841797454 -54.96240303820528 11.438410057039588 6.235169858146648 74.93019941447349 -13.6879082778115 3.9756933518293955e-16 -1.987846675914698e-16 -7.454425034680115e-15 -17.3390955837331 -54.21998687613009 -17.428095252835455 71.43282575199909 77.71698031797106 -58.6615578901187 1.5902773407317582e-15 -1.0069223742426923e-31 -7.255640367088647e-15 6.5471463612804675 23.046435388769066 -1.0641686775371728 2.7736014530402526e-07 -1.0369063273501345e-07 5.428241520279075 -0.8756179191691732 -7.285679293354502 179.8257074340809 102.29025648201518 -1.7308476851939947 -168.7828289857936 3.1441160449678887e-06 -4.802249853339327e-06 36.970064343625005 -1.5902773407317582e-15 -6.361109362927033e-15 -8.827812596100317e-32 -116.60181085195389 0.6124845559338553 146.60624398968636 6.115519600900723e-07 2.219085893839259e-06 -63.33408111194795 -7.951386703658792e-16 -6.3611093629270335e-15 -4.4139062980501586e-32
0.0003751744225155562 56.37596130371094 -0.0007434131694026291 14.013085876732218 -7.652421257483622 67.46600716813485 17.526655997097436 -55.04048245695523 11.201708987194825 6.18667772954036 74.96096375348797 -13.46633953546454 -3.750096171194959e-32 9.93923337957349e-16 4.3235665201144685e-15 -17.722317134361873 -54.100580002309854 -17.810177824035772 71.57276981369606 77.62371556566764 -58.4871989677509 -3.9756933518293955e-16 3.9756933518293955e-16 -6.162324695335563e-15 6.621237221663641 23.138587658045857 -1.0595967676677471 9.266995268550765e-08 5.700409167644615e-07 5.627874431365227 -0.6869218902833205 -7.556915095710144 179.56709794049308 102.58678042816878 -2.6044707947400645 -168.2016138015475 8.559286070959812e-07 -8.752001118587579e-07 36.84508745613374 0.0 0.0 0.0 -117.22889605714428 0.3579106715166813 145.14861963784023 -8.177219739821076e-07 4.2049115763775495e-06 -61.37013765718647 -7.951386703658791e-16 0.0 0.0
